<svg width="183" height="51" viewBox="0 0 183 51" fill="none" xmlns="http://www.w3.org/2000/svg">
<path d="M14.1926 24.1539C14.1926 23.2386 13.8692 22.5387 13.2226 22.054C12.576 21.5587 11.412 21.0418 9.73074 20.5034C8.04947 19.9542 6.71845 19.4157 5.73772 18.888C3.06493 17.445 1.72853 15.5014 1.72853 13.0569C1.72853 11.7862 2.08418 10.6555 2.79549 9.66479C3.51757 8.66332 4.54682 7.88259 5.88322 7.32262C7.23039 6.76266 8.73922 6.48267 10.4097 6.48267C12.091 6.48267 13.589 6.78958 14.9039 7.40338C16.2187 8.00642 17.2372 8.86253 17.9593 9.9717C18.6921 11.0809 19.0585 12.3408 19.0585 13.7515H14.2087C14.2087 12.6746 13.8692 11.84 13.1903 11.2478C12.5113 10.6447 11.5575 10.3432 10.3289 10.3432C9.14337 10.3432 8.22191 10.5963 7.56449 11.1024C6.90706 11.5977 6.57835 12.2546 6.57835 13.0731C6.57835 13.8377 6.96095 14.4783 7.72614 14.9952C8.50211 15.5121 9.63913 15.9968 11.1372 16.449C13.8961 17.2782 15.9062 18.3065 17.1671 19.5342C18.4281 20.7618 19.0585 22.291 19.0585 24.1216C19.0585 26.1569 18.2879 27.756 16.7469 28.9191C15.2057 30.0712 13.131 30.6474 10.5229 30.6474C8.71228 30.6474 7.06333 30.3189 5.57605 29.662C4.08878 28.9945 2.95177 28.0844 2.16501 26.9323C1.38903 25.7799 1.00105 24.4447 1.00105 22.9263H5.86705C5.86705 25.5215 7.41899 26.8191 10.5229 26.8191C11.6761 26.8191 12.576 26.5877 13.2226 26.1245C13.8692 25.6508 14.1926 24.9938 14.1926 24.1539ZM60.185 26.4315H70.4829V30.3243H55.3352V6.80573H60.185V26.4315ZM86.8914 25.4785H78.388L76.7715 30.3243H71.6145L80.3766 6.80573H84.8707L93.6812 30.3243H88.5242L86.8914 25.4785ZM79.6976 21.5533H85.582L82.6237 12.75L79.6976 21.5533ZM104.593 21.7148H100.73V30.3243H95.8798V6.80573H104.626C107.406 6.80573 109.551 7.42493 111.06 8.66332C112.569 9.90169 113.323 11.6516 113.323 13.9131C113.323 15.5175 112.973 16.8582 112.272 17.935C111.583 19.0012 110.532 19.8518 109.12 20.4872L114.212 30.0981V30.3243H109.007L104.593 21.7148ZM100.73 17.7896H104.642C105.86 17.7896 106.803 17.4828 107.471 16.869C108.139 16.2445 108.473 15.3883 108.473 14.3007C108.473 13.1915 108.155 12.3192 107.519 11.6839C106.894 11.0485 105.93 10.7309 104.626 10.7309H100.73V17.7896ZM139.431 20.1319H130.119V26.4315H141.048V30.3243H125.27V6.80573H141.016V10.7309H130.119V16.336H139.431V20.1319ZM152.315 14.9145L156.729 6.80573H162.306L155.452 18.4681L162.484 30.3243H156.842L152.315 22.0863L147.789 30.3243H142.147L149.18 18.4681L142.325 6.80573H147.902L152.315 14.9145ZM179.103 20.1319H169.791V26.4315H180.719V30.3243H164.941V6.80573H180.686V10.7309H169.791V16.336H179.103V20.1319Z" fill="white"/>
<path d="M37.2453 10.1858C31.7384 10.1858 27.2581 14.6624 27.2581 20.1648C27.2581 25.6673 31.7384 30.144 37.2453 30.144C42.7523 30.144 47.2325 25.6674 47.2325 20.1648C47.2325 14.6624 42.7523 10.1858 37.2453 10.1858ZM37.2453 28.3869C32.7078 28.3869 29.0165 24.6985 29.0165 20.1648C29.0165 15.6313 32.7078 11.9428 37.2453 11.9428C41.7826 11.9428 45.4739 15.6313 45.4739 20.1648C45.4739 24.6984 41.7826 28.3869 37.2453 28.3869Z" fill="white"/>
<path d="M37.246 3.62549C36.76 3.62549 36.3663 4.01879 36.3663 4.50404V7.9632C36.3663 8.44854 36.7602 8.84185 37.246 8.84185C37.732 8.84185 38.1258 8.44854 38.1258 7.9633V4.50404C38.1258 4.01889 37.732 3.62549 37.246 3.62549Z" fill="white"/>
<path d="M48.9502 8.46976C48.6067 8.12662 48.0501 8.12662 47.7066 8.46976L45.2585 10.9159C44.9152 11.259 44.9152 11.8152 45.2585 12.1582C45.4302 12.3298 45.6552 12.4156 45.8803 12.4156C46.1053 12.4156 46.3303 12.3298 46.502 12.1582L48.9501 9.71208C49.2936 9.36904 49.2936 8.81281 48.9502 8.46976Z" fill="white"/>
<path d="M29.2326 28.1713C28.8891 27.8284 28.3324 27.8282 27.9889 28.1713L25.5407 30.6174C25.1972 30.9606 25.1972 31.5168 25.5406 31.86C25.7125 32.0316 25.9373 32.1173 26.1625 32.1173C26.3875 32.1173 26.6125 32.0316 26.7841 31.86L29.2323 29.4138C29.5758 29.0707 29.5758 28.5144 29.2326 28.1713Z" fill="white"/>
<path d="M52.9192 19.2864H49.4569C48.9715 19.2864 48.5778 19.6796 48.5778 20.165C48.5778 20.65 48.9712 21.0435 49.4569 21.0435H52.9192C53.4049 21.0435 53.7985 20.6501 53.7985 20.165C53.7984 19.6796 53.4048 19.2864 52.9192 19.2864Z" fill="white"/>
<path d="M25.0339 19.2864H21.5719C21.0862 19.2864 20.6926 19.6796 20.6926 20.165C20.6926 20.65 21.0862 21.0435 21.5719 21.0435H25.0339C25.5198 21.0435 25.9132 20.6501 25.9132 20.165C25.9132 19.6796 25.5198 19.2864 25.0339 19.2864Z" fill="white"/>
<path d="M29.2326 10.9159L26.7844 8.46993C26.4411 8.12679 25.8844 8.12698 25.541 8.46993C25.1975 8.81308 25.1975 9.36931 25.5411 9.71246L27.9892 12.1586C28.1608 12.3301 28.3858 12.416 28.6108 12.416C28.8358 12.416 29.0608 12.3302 29.2327 12.1586C29.5759 11.8153 29.5759 11.2591 29.2326 10.9159Z" fill="white"/>
<path d="M48.9502 30.6175L46.5022 28.1715C46.1588 27.8283 45.6022 27.8283 45.2585 28.1715C44.9152 28.5146 44.9152 29.0707 45.2585 29.4138L47.7066 31.8599C47.8784 32.0315 48.1034 32.1172 48.3285 32.1172C48.5535 32.1172 48.7785 32.0315 48.9502 31.8599C49.2937 31.5168 49.2937 30.9606 48.9502 30.6175Z" fill="white"/>
<path d="M60.2887 48.75L60.5328 46.971L60.644 46.161L65.5091 46.8277C65.9902 46.8938 66.4337 46.5576 66.4998 46.0768C66.5657 45.5959 66.2292 45.1529 65.7481 45.087L60.883 44.4203L61.4853 40.0332L66.3502 40.6999C66.8313 40.7659 67.2749 40.4297 67.3408 39.949C67.4069 39.468 67.0703 39.0252 66.5893 38.9591L61.7242 38.2924L61.8354 37.4825L62.0795 35.7034C62.1456 35.2226 61.809 34.7796 61.328 34.7137C60.847 34.6477 60.4033 34.9839 60.3374 35.4647L60.2127 36.3734L55.9098 35.7836C53.1077 35.3996 50.4956 37.1405 49.7073 39.767L41.9621 38.7057C39.4268 38.3582 37.647 36.0145 37.9948 33.4813L38.2759 31.4336C38.3418 30.9528 38.0054 30.5098 37.5242 30.4438C37.043 30.3779 36.5997 30.714 36.5336 31.1949L36.2526 33.2426C35.7731 36.7357 38.2271 39.9671 41.723 40.4463L49.4682 41.5078C49.5197 44.2492 51.5662 46.6287 54.3684 47.0127L58.6711 47.6024L58.5464 48.511C58.4804 48.9918 58.8169 49.4348 59.2981 49.5008C59.7792 49.5669 60.2227 49.2307 60.2887 48.75ZM54.6075 45.2721C52.4696 44.9791 50.9691 43.0029 51.2623 40.8671C51.5554 38.7312 53.5332 37.2316 55.6709 37.5247L59.9737 38.1143L58.9103 45.8619L54.6075 45.2723V45.2721Z" fill="white"/>
<path d="M104.343 3.13551C104.829 3.13551 105.222 2.74217 105.222 2.25697C105.222 1.77175 104.829 1.37842 104.343 1.37842C103.857 1.37842 103.463 1.77175 103.463 2.25697C103.463 2.74217 103.857 3.13551 104.343 3.13551Z" fill="white"/>
<path d="M100.204 3.13551C100.69 3.13551 101.084 2.74217 101.084 2.25697C101.084 1.77175 100.69 1.37842 100.204 1.37842C99.7183 1.37842 99.3244 1.77175 99.3244 2.25697C99.3244 2.74217 99.7183 3.13551 100.204 3.13551Z" fill="white"/>
</svg>
